<mxfile host="app.diagrams.net" modified="2022-10-16T16:35:35.939Z" agent="5.0 (Windows NT 10.0; Win64; x64) AppleWebKit/537.36 (KHTML, like Gecko) Chrome/106.0.0.0 Safari/537.36" etag="nap3ywiHKLDP5VOHvyE_" version="20.4.1" type="github">
  <diagram id="EiT3ySgXhxR_7Jf29pkD" name="第 1 页">
    <mxGraphModel dx="1278" dy="579" grid="1" gridSize="10" guides="1" tooltips="1" connect="1" arrows="1" fold="1" page="1" pageScale="1" pageWidth="827" pageHeight="1169" math="0" shadow="0">
      <root>
        <mxCell id="0" />
        <mxCell id="1" parent="0" />
        <mxCell id="Be0Wk51SI4mA-zdL48Nq-4" style="edgeStyle=orthogonalEdgeStyle;rounded=0;orthogonalLoop=1;jettySize=auto;html=1;entryX=0;entryY=0.5;entryDx=0;entryDy=0;" edge="1" parent="1" source="Be0Wk51SI4mA-zdL48Nq-1" target="Be0Wk51SI4mA-zdL48Nq-2">
          <mxGeometry relative="1" as="geometry" />
        </mxCell>
        <mxCell id="Be0Wk51SI4mA-zdL48Nq-1" value="" style="rounded=0;whiteSpace=wrap;html=1;" vertex="1" parent="1">
          <mxGeometry x="110" y="120" width="120" height="80" as="geometry" />
        </mxCell>
        <mxCell id="Be0Wk51SI4mA-zdL48Nq-5" style="edgeStyle=orthogonalEdgeStyle;rounded=0;orthogonalLoop=1;jettySize=auto;html=1;exitX=1;exitY=0.5;exitDx=0;exitDy=0;entryX=0;entryY=0.5;entryDx=0;entryDy=0;" edge="1" parent="1" source="Be0Wk51SI4mA-zdL48Nq-2" target="Be0Wk51SI4mA-zdL48Nq-3">
          <mxGeometry relative="1" as="geometry" />
        </mxCell>
        <mxCell id="Be0Wk51SI4mA-zdL48Nq-2" value="" style="rounded=0;whiteSpace=wrap;html=1;" vertex="1" parent="1">
          <mxGeometry x="310" y="120" width="120" height="80" as="geometry" />
        </mxCell>
        <mxCell id="Be0Wk51SI4mA-zdL48Nq-3" value="" style="rounded=0;whiteSpace=wrap;html=1;" vertex="1" parent="1">
          <mxGeometry x="500" y="120" width="120" height="80" as="geometry" />
        </mxCell>
        <mxCell id="Be0Wk51SI4mA-zdL48Nq-6" value="&lt;font style=&quot;font-size: 18px;&quot;&gt;&lt;b&gt;User&lt;br&gt;A&lt;/b&gt;&lt;/font&gt;" style="text;html=1;strokeColor=none;fillColor=none;align=center;verticalAlign=middle;whiteSpace=wrap;rounded=0;" vertex="1" parent="1">
          <mxGeometry x="125" y="130" width="90" height="60" as="geometry" />
        </mxCell>
        <mxCell id="Be0Wk51SI4mA-zdL48Nq-7" value="&lt;font style=&quot;font-size: 18px;&quot;&gt;&lt;b&gt;Contract&lt;br&gt;B&lt;br&gt;&lt;/b&gt;&lt;/font&gt;" style="text;html=1;strokeColor=none;fillColor=none;align=center;verticalAlign=middle;whiteSpace=wrap;rounded=0;" vertex="1" parent="1">
          <mxGeometry x="325" y="130" width="90" height="60" as="geometry" />
        </mxCell>
        <mxCell id="Be0Wk51SI4mA-zdL48Nq-8" value="&lt;font style=&quot;font-size: 18px;&quot;&gt;&lt;b&gt;Contract&lt;br&gt;C&lt;br&gt;&lt;/b&gt;&lt;/font&gt;" style="text;html=1;strokeColor=none;fillColor=none;align=center;verticalAlign=middle;whiteSpace=wrap;rounded=0;" vertex="1" parent="1">
          <mxGeometry x="515" y="130" width="90" height="60" as="geometry" />
        </mxCell>
        <mxCell id="Be0Wk51SI4mA-zdL48Nq-9" value="call" style="text;html=1;strokeColor=none;fillColor=none;align=center;verticalAlign=middle;whiteSpace=wrap;rounded=0;fontSize=18;" vertex="1" parent="1">
          <mxGeometry x="240" y="130" width="60" height="30" as="geometry" />
        </mxCell>
        <mxCell id="Be0Wk51SI4mA-zdL48Nq-10" value="call" style="text;html=1;strokeColor=none;fillColor=none;align=center;verticalAlign=middle;whiteSpace=wrap;rounded=0;fontSize=18;" vertex="1" parent="1">
          <mxGeometry x="430" y="125" width="60" height="40" as="geometry" />
        </mxCell>
        <mxCell id="Be0Wk51SI4mA-zdL48Nq-11" value="Context: B&lt;br&gt;msg.sender=A&lt;br&gt;msg.value from A" style="text;html=1;strokeColor=none;fillColor=none;align=center;verticalAlign=middle;whiteSpace=wrap;rounded=0;fontSize=18;" vertex="1" parent="1">
          <mxGeometry x="267.5" y="180" width="205" height="150" as="geometry" />
        </mxCell>
        <mxCell id="Be0Wk51SI4mA-zdL48Nq-12" value="Context: C&lt;br&gt;msg.sender=B&lt;br&gt;msg.value from B" style="text;html=1;strokeColor=none;fillColor=none;align=center;verticalAlign=middle;whiteSpace=wrap;rounded=0;fontSize=18;" vertex="1" parent="1">
          <mxGeometry x="457.5" y="180" width="205" height="150" as="geometry" />
        </mxCell>
      </root>
    </mxGraphModel>
  </diagram>
</mxfile>
